<?xml version="1.0" encoding="UTF-8"?>
<svg id="Layer_2" data-name="Layer 2" xmlns="http://www.w3.org/2000/svg" viewBox="0 0 173.17 173.17">
  <defs>
    <style>
      .cls-1 {
        fill: #fff;
      }

      .cls-2 {
        fill: #231f20;
      }
    </style>
  </defs>
  <g id="Layer_2-2" data-name="Layer 2">
    <circle class="cls-1" cx="86.58" cy="86.58" r="86.58"/>
    <path class="cls-2" d="M7.23,72.41s45.76-19.44,52.42-17.18c.07,14.69,8.37,19.61,8.37,19.61,0,0-8.13,3.27-6.32,18.04-13.02-17.05-54.46-20.47-54.46-20.47Z"/>
    <path class="cls-2" d="M171.69,102.53l-17.69-17.42c-8.26-18.06-24.62-46.88-50.2-50.62-22.74-3.33-37.83,6.37-44.15,20.73-4.14,9.41,2.05,37.65,2.05,37.65,6.22,7.47,18.71,18.01,12.6,37.71-3.96,12.76-2.78,27.36,1.87,41.95,3.48,.42,7.02,.63,10.61,.62,42.3-.09,77.45-30.51,84.93-70.63Z"/>
    <circle class="cls-1" cx="96.33" cy="67.59" r="14.8"/>
  </g>
</svg>